<svg width="29" height="64" viewBox="0 0 29 64" fill="none" xmlns="http://www.w3.org/2000/svg">
<circle cx="-3.5" cy="32" r="30" fill="#323C46" stroke="#F6F5F4" stroke-width="4"/>
<path d="M-7.19604 42.488C-6.10804 43.648 -5.05204 44.508 -4.14004 44.94C-4.06404 44.976 -3.99604 45.02 -3.93604 45.076C-3.91204 45.096 -3.88804 45.116 -3.86004 45.136C-3.75604 45.196 -3.60804 45.216 -3.43604 45.204C-3.41204 45.2 -3.38805 45.2 -3.36405 45.2C-3.34005 45.2 -3.31605 45.2 -3.28805 45.204C-3.25205 45.208 -3.21605 45.208 -3.18405 45.208C-3.05205 45.208 -2.94804 45.184 -2.86404 45.136C-2.83604 45.12 -2.81205 45.1 -2.78805 45.08C-2.72405 45.024 -2.65604 44.976 -2.58004 44.94C-1.42004 44.392 -0.0360436 43.16 1.35596 41.496C0.0359564 42.324 -1.76004 42.828 -4.07204 42.828C-5.16404 42.828 -6.24004 42.692 -7.19604 42.488Z" fill="white"/>
<path d="M9.6999 26.852C9.6999 26.896 9.6959 26.936 9.6959 26.98C9.7919 29.592 8.3919 33.764 6.0439 37.824C3.6279 42.008 0.663902 45.312 -1.7201 46.496C-1.8081 46.564 -1.8921 46.624 -1.9801 46.672C-2.3321 46.876 -2.7401 46.98 -3.1881 46.98C-3.2481 46.98 -3.3041 46.976 -3.3641 46.976C-3.8841 47.004 -4.3521 46.904 -4.7521 46.672C-4.8401 46.62 -4.9241 46.564 -5.0081 46.496C-7.3921 45.312 -10.3561 42.004 -12.7721 37.824C-14.7921 34.332 -16.7041 27.6 -16.7041 26.856C-16.7041 26.076 -16.4761 25.32 -16.0521 24.668C-15.9321 24.468 -15.7481 24.24 -15.5281 24.024C-15.4481 23.948 -15.3641 23.868 -15.2721 23.792C-15.2641 23.784 -15.2241 23.752 -15.2161 23.744C-13.2241 22.1 -8.5641 21.024 -3.3681 21.024C3.1239 21.024 9.6959 22.712 9.6959 25.94L9.6999 26.852Z" fill="white"/>
<path d="M3.15584 23.436L2.27183 26.636C1.45983 26.244 0.0158343 25.672 -1.97217 25.672C-3.95617 25.672 -4.92017 26.576 -4.92017 27.632C-4.92017 28.924 -3.77617 29.496 -1.16017 30.492C2.41983 31.816 4.10783 33.684 4.10783 36.54C4.10783 36.98 4.05983 37.412 3.97183 37.828C4.15183 37.536 4.33183 37.24 4.50783 36.936C6.66383 33.208 8.00383 29.308 7.91983 27.004C7.91983 26.984 7.91983 26.964 7.91983 26.944L7.92383 26.868V25.94C7.92783 25.128 6.17583 24.092 3.15584 23.436Z" fill="white"/>
</svg>
