<svg width="65" height="64" viewBox="0 0 65 64" fill="none" xmlns="http://www.w3.org/2000/svg">
<circle cx="32.5" cy="32" r="30" fill="#323C46" stroke="#F6F5F4" stroke-width="4"/>
<path fill-rule="evenodd" clip-rule="evenodd" d="M28.4996 17.0001C26.8412 17.0013 25.499 18.3444 25.5003 19.9994C25.499 21.6544 26.8424 22.9976 28.5008 22.9988H31.5014V20.0006C31.5026 18.3456 30.1592 17.0025 28.4996 17.0001C28.5008 17.0001 28.5008 17.0001 28.4996 17.0001V17.0001ZM28.4996 25H20.5006C18.8422 25.0012 17.4988 26.3443 17.5 27.9993C17.4976 29.6544 18.8409 30.9975 20.4993 30.9999H28.4996C30.158 30.9987 31.5014 29.6556 31.5001 28.0006C31.5014 26.3443 30.158 25.0012 28.4996 25Z" fill="white"/>
<path fill-rule="evenodd" clip-rule="evenodd" d="M47.4987 27.9993C47.4999 26.3442 46.1565 25.0011 44.4981 24.9999C42.8397 25.0011 41.4963 26.3442 41.4976 27.9993V30.9999H44.4981C46.1565 30.9986 47.4999 29.6555 47.4987 27.9993ZM39.4984 27.9993V19.9994C39.4996 18.3456 38.1575 17.0024 36.4991 17C34.8407 17.0012 33.4973 18.3443 33.4985 19.9994V27.9993C33.4961 29.6543 34.8395 30.9974 36.4979 30.9999C38.1563 30.9986 39.4996 29.6555 39.4984 27.9993Z" fill="white"/>
<path fill-rule="evenodd" clip-rule="evenodd" d="M36.4991 46.9996C38.1575 46.9984 39.5009 45.6553 39.4996 44.0003C39.5009 42.3452 38.1575 41.0021 36.4991 41.0009H33.4985V44.0003C33.4973 45.6541 34.8407 46.9972 36.4991 46.9996ZM36.4991 38.9985H44.4993C46.1577 38.9973 47.5011 37.6541 47.4999 35.9991C47.5023 34.3441 46.159 33.001 44.5006 32.9985H36.5003C34.8419 32.9998 33.4985 34.3429 33.4998 35.9979C33.4985 37.6541 34.8407 38.9973 36.4991 38.9985Z" fill="white"/>
<path fill-rule="evenodd" clip-rule="evenodd" d="M17.5 35.9994C17.4988 37.6544 18.8422 38.9975 20.5006 38.9987C22.1589 38.9975 23.5023 37.6544 23.5011 35.9994V33H20.5006C18.8422 33.0012 17.4988 34.3443 17.5 35.9994ZM25.5002 35.9994V43.9993C25.4978 45.6543 26.8412 46.9974 28.4996 46.9999C30.158 46.9986 31.5014 45.6555 31.5001 44.0005V36.0018C31.5026 34.3468 30.1592 33.0037 28.5008 33.0012C26.8412 33.0012 25.499 34.3443 25.5002 35.9994C25.5002 36.0006 25.5002 35.9994 25.5002 35.9994Z" fill="white"/>
</svg>
