<svg width="512" height="228" viewBox="0 0 512 228" fill="none" xmlns="http://www.w3.org/2000/svg">
<g clip-path="url(#clip0_716_129)">
<line x1="265.233" y1="43.1462" x2="328.233" y2="134.146" stroke="#F6F5F4" stroke-width="3"/>
<line x1="450.539" y1="90.3997" x2="328.539" y2="137.4" stroke="#F6F5F4" stroke-width="3"/>
<line x1="436.206" y1="205.273" x2="327.206" y2="137.273" stroke="#F6F5F4" stroke-width="3"/>
<line x1="190.513" y1="181.581" x2="327.513" y2="134.581" stroke="#F6F5F4" stroke-width="3"/>
<path d="M487.83 90.2636C487.591 96.2994 485.895 102.188 482.885 107.425C479.876 112.663 475.644 117.094 470.549 120.34C465.455 123.586 459.651 125.551 453.632 126.066C447.614 126.581 441.56 125.631 435.988 123.297C433.375 122.202 430.897 120.81 428.602 119.148C424.216 115.981 420.566 111.905 417.901 107.198V107.194C415.059 102.159 413.423 96.5335 413.122 90.7599C412.822 84.9863 413.864 79.2216 416.166 73.9186C418.469 68.6157 421.971 63.9189 426.395 60.1975C430.82 56.476 436.047 53.8311 441.666 52.4707C447.285 51.1103 453.143 51.0713 458.78 52.3569C464.416 53.6425 469.678 56.2177 474.152 59.88C478.625 63.5423 482.189 68.1921 484.562 73.464C486.935 78.7358 488.054 84.4862 487.829 90.2633L487.83 90.2636Z" fill="white"/>
<path d="M489.863 89.4682L489.828 90.3426C489.577 96.701 487.79 102.904 484.62 108.422C481.45 113.939 476.991 118.607 471.624 122.027C466.258 125.446 460.143 127.516 453.803 128.058C447.463 128.601 441.085 127.6 435.216 125.142L435.215 125.142C432.461 123.987 429.849 122.52 427.43 120.768M489.863 89.4682L428.602 119.148M489.863 89.4682L489.852 89.4577C489.947 83.6697 488.765 77.9281 486.386 72.643C483.885 67.0891 480.131 62.1907 475.419 58.3324C470.706 54.4742 465.163 51.7614 459.224 50.407C453.286 49.0527 447.115 49.0937 441.195 50.5269C435.276 51.9601 429.769 54.7464 425.108 58.6669C420.447 62.5874 416.758 67.5353 414.332 73.1219C411.906 78.7085 410.808 84.7816 411.125 90.864C411.433 96.7693 413.066 102.527 415.901 107.712M489.863 89.4682L417.901 107.194M427.43 120.768C427.429 120.768 427.429 120.768 427.429 120.767L428.602 119.148M427.43 120.768C427.43 120.768 427.431 120.769 427.432 120.769L428.602 119.148M427.43 120.768C422.811 117.433 418.967 113.14 416.16 108.183L415.901 107.725V107.712M428.602 119.148C424.216 115.981 420.566 111.905 417.901 107.198V107.194M415.901 107.712C415.986 107.867 416.072 108.022 416.159 108.177L417.893 107.198L417.901 107.194M415.901 107.712V107.198V107.194H417.901" fill="white" stroke="#F6F5F4" stroke-width="4"/>
<g clip-path="url(#clip1_716_129)">
<mask id="mask0_716_129" style="mask-type:luminance" maskUnits="userSpaceOnUse" x="433" y="70" width="37" height="37">
<path d="M433.373 70.9321H469.095V106.654H433.373V70.9321Z" fill="white"/>
</mask>
<g mask="url(#mask0_716_129)">
<path d="M439.327 88.0491V94.0028C439.327 95.2382 440.324 96.2354 441.559 96.2354C442.795 96.2354 443.792 95.2382 443.792 94.0028V88.0491C443.792 86.8137 442.795 85.8164 441.559 85.8164C440.324 85.8164 439.327 86.8137 439.327 88.0491ZM448.257 88.0491V94.0028C448.257 95.2382 449.255 96.2354 450.49 96.2354C451.725 96.2354 452.723 95.2382 452.723 94.0028V88.0491C452.723 86.8137 451.725 85.8164 450.49 85.8164C449.255 85.8164 448.257 86.8137 448.257 88.0491ZM438.582 103.678H462.397C463.633 103.678 464.63 102.68 464.63 101.445C464.63 100.21 463.633 99.2123 462.397 99.2123H438.582C437.347 99.2123 436.35 100.21 436.35 101.445C436.35 102.68 437.347 103.678 438.582 103.678ZM457.188 88.0491V94.0028C457.188 95.2382 458.185 96.2354 459.421 96.2354C460.656 96.2354 461.653 95.2382 461.653 94.0028V88.0491C461.653 86.8137 460.656 85.8164 459.421 85.8164C458.185 85.8164 457.188 86.8137 457.188 88.0491ZM449.106 73.1499L437.347 79.3417C436.737 79.6543 436.35 80.2943 436.35 80.979C436.35 82.006 437.183 82.8395 438.21 82.8395H462.784C463.796 82.8395 464.63 82.006 464.63 80.979C464.63 80.2943 464.243 79.6543 463.633 79.3417L451.874 73.1499C451.011 72.6885 449.969 72.6885 449.106 73.1499Z" fill="#323C46"/>
</g>
</g>
<path d="M327.659 173.674C348.712 173.674 365.779 156.607 365.779 135.554C365.779 114.501 348.712 97.4342 327.659 97.4342C306.606 97.4342 289.539 114.501 289.539 135.554C289.539 156.607 306.606 173.674 327.659 173.674Z" fill="white"/>
<path d="M361.018 157.842C365.425 151.245 367.778 143.49 367.779 135.556L365.779 135.553C365.797 130.542 364.824 125.577 362.915 120.944C361.006 116.31 358.199 112.101 354.655 108.557C351.112 105.014 346.902 102.207 342.269 100.298C337.636 98.3887 332.671 97.4154 327.66 97.4339V95.4339C327.658 95.4339 327.657 95.4339 327.656 95.4339C319.722 95.4346 311.967 97.7875 305.371 102.195C298.773 106.604 293.631 112.869 290.594 120.2C287.558 127.531 286.763 135.598 288.311 143.38C289.859 151.162 293.68 158.311 299.291 163.922C304.902 169.532 312.051 173.353 319.833 174.901C327.615 176.449 335.682 175.655 343.013 172.618C350.343 169.582 356.609 164.44 361.018 157.842Z" fill="#323C46" stroke="#F6F5F4" stroke-width="4"/>
<path d="M327.257 133.271C328.642 133.271 329.996 132.86 331.148 132.091C332.3 131.321 333.198 130.227 333.728 128.947C334.258 127.667 334.397 126.259 334.126 124.9C333.856 123.542 333.189 122.294 332.21 121.314C331.23 120.334 329.982 119.667 328.623 119.397C327.264 119.127 325.856 119.266 324.576 119.796C323.296 120.326 322.202 121.224 321.433 122.375C320.663 123.527 320.252 124.882 320.252 126.267C320.252 128.125 320.99 129.906 322.304 131.22C323.617 132.533 325.399 133.271 327.257 133.271ZM337.763 150.782C338.228 150.782 338.673 150.598 339.001 150.269C339.33 149.941 339.514 149.495 339.514 149.031C339.514 145.78 338.223 142.662 335.924 140.364C333.625 138.065 330.508 136.773 327.257 136.773C324.006 136.773 320.888 138.065 318.589 140.364C316.29 142.662 314.999 145.78 314.999 149.031C314.999 149.495 315.184 149.941 315.512 150.269C315.84 150.598 316.286 150.782 316.75 150.782H337.763Z" fill="white"/>
<path d="M190.954 217.595C210.258 217.595 225.907 201.946 225.907 182.641C225.907 163.337 210.258 147.688 190.954 147.688C171.649 147.688 156 163.337 156 182.641C156 201.946 171.649 217.595 190.954 217.595Z" fill="white"/>
<path d="M190.954 219.595C211.363 219.595 227.907 203.05 227.907 182.641C227.907 162.232 211.363 145.688 190.954 145.688C170.545 145.688 154 162.232 154 182.641C154 203.05 170.545 219.595 190.954 219.595Z" fill="white" stroke="#F6F5F4" stroke-width="4"/>
<g clip-path="url(#clip2_716_129)">
<mask id="mask1_716_129" style="mask-type:luminance" maskUnits="userSpaceOnUse" x="173" y="164" width="37" height="37">
<path d="M173.861 164.441H209.583V200.163H173.861V164.441Z" fill="white"/>
</mask>
<g mask="url(#mask1_716_129)">
<path d="M179.815 181.558V187.511C179.815 188.747 180.812 189.744 182.047 189.744C183.283 189.744 184.28 188.747 184.28 187.511V181.558C184.28 180.322 183.283 179.325 182.047 179.325C180.812 179.325 179.815 180.322 179.815 181.558ZM188.745 181.558V187.511C188.745 188.747 189.743 189.744 190.978 189.744C192.213 189.744 193.211 188.747 193.211 187.511V181.558C193.211 180.322 192.213 179.325 190.978 179.325C189.743 179.325 188.745 180.322 188.745 181.558ZM179.071 197.186H202.885C204.121 197.186 205.118 196.189 205.118 194.954C205.118 193.718 204.121 192.721 202.885 192.721H179.071C177.835 192.721 176.838 193.718 176.838 194.954C176.838 196.189 177.835 197.186 179.071 197.186ZM197.676 181.558V187.511C197.676 188.747 198.673 189.744 199.909 189.744C201.144 189.744 202.141 188.747 202.141 187.511V181.558C202.141 180.322 201.144 179.325 199.909 179.325C198.673 179.325 197.676 180.322 197.676 181.558ZM189.594 166.658L177.835 172.85C177.225 173.163 176.838 173.803 176.838 174.488C176.838 175.515 177.671 176.348 178.698 176.348H203.272C204.285 176.348 205.118 175.515 205.118 174.488C205.118 173.803 204.731 173.163 204.121 172.85L192.362 166.658C191.499 166.197 190.457 166.197 189.594 166.658Z" fill="#323C46"/>
</g>
</g>
<path d="M263.698 80.6774C283.797 80.6774 300.09 64.384 300.09 44.2852C300.09 24.1863 283.797 7.89291 263.698 7.89291C243.599 7.89291 227.305 24.1863 227.305 44.2852C227.305 64.384 243.599 80.6774 263.698 80.6774Z" fill="white"/>
<path d="M263.698 82.6774C284.901 82.6774 302.09 65.4886 302.09 44.2852C302.09 23.0817 284.901 5.89291 263.698 5.89291C242.494 5.89291 225.305 23.0817 225.305 44.2852C225.305 65.4886 242.494 82.6774 263.698 82.6774Z" fill="white" stroke="#F6F5F4" stroke-width="4"/>
<g clip-path="url(#clip3_716_129)">
<mask id="mask2_716_129" style="mask-type:luminance" maskUnits="userSpaceOnUse" x="246" y="25" width="37" height="37">
<path d="M246.356 25.7539H282.079V61.4762H246.356V25.7539Z" fill="white"/>
</mask>
<g mask="url(#mask2_716_129)">
<path d="M252.31 42.8708V48.8246C252.31 50.06 253.307 51.0572 254.543 51.0572C255.778 51.0572 256.775 50.06 256.775 48.8246V42.8708C256.775 41.6354 255.778 40.6382 254.543 40.6382C253.307 40.6382 252.31 41.6354 252.31 42.8708ZM261.241 42.8708V48.8246C261.241 50.06 262.238 51.0572 263.473 51.0572C264.709 51.0572 265.706 50.06 265.706 48.8246V42.8708C265.706 41.6354 264.709 40.6382 263.473 40.6382C262.238 40.6382 261.241 41.6354 261.241 42.8708ZM251.566 58.4993H275.381C276.616 58.4993 277.613 57.5021 277.613 56.2667C277.613 55.0313 276.616 54.0341 275.381 54.0341H251.566C250.33 54.0341 249.333 55.0313 249.333 56.2667C249.333 57.5021 250.33 58.4993 251.566 58.4993ZM270.171 42.8708V48.8246C270.171 50.06 271.169 51.0572 272.404 51.0572C273.639 51.0572 274.637 50.06 274.637 48.8246V42.8708C274.637 41.6354 273.639 40.6382 272.404 40.6382C271.169 40.6382 270.171 41.6354 270.171 42.8708ZM262.089 27.9717L250.33 34.1635C249.72 34.4761 249.333 35.1161 249.333 35.8008C249.333 36.8278 250.167 37.6613 251.194 37.6613H275.768C276.78 37.6613 277.613 36.8278 277.613 35.8008C277.613 35.1161 277.226 34.4761 276.616 34.1635L264.858 27.9717C263.994 27.5103 262.952 27.5103 262.089 27.9717Z" fill="#323C46"/>
</g>
</g>
<path d="M435.059 238.266C454.229 238.266 469.77 222.725 469.77 203.555C469.77 184.385 454.229 168.845 435.059 168.845C415.889 168.845 400.349 184.385 400.349 203.555C400.349 222.725 415.889 238.266 435.059 238.266Z" fill="white"/>
<path d="M404.535 223.949C400.502 217.914 398.349 210.817 398.348 203.558C398.348 203.557 398.348 203.556 398.348 203.554L400.348 203.554L404.535 223.949ZM404.535 223.949C408.569 229.986 414.302 234.692 421.01 237.47M404.535 223.949L421.01 237.47M421.01 237.47C427.718 240.249 435.099 240.976 442.22 239.559M421.01 237.47L442.22 239.559M442.22 239.559C449.341 238.143 455.882 234.647 461.016 229.513M442.22 239.559L461.016 229.513M461.016 229.513C466.15 224.379 469.646 217.838 471.063 210.717M461.016 229.513L471.063 210.717M471.063 210.717C472.479 203.596 471.752 196.214 468.974 189.507M471.063 210.717L468.974 189.507M468.974 189.507C466.195 182.799 461.49 177.065 455.453 173.032M468.974 189.507L455.453 173.032M455.453 173.032C449.417 168.999 442.321 166.846 435.062 166.845L455.453 173.032Z" fill="white" stroke="#F6F5F4" stroke-width="4"/>
<g clip-path="url(#clip4_716_129)">
<mask id="mask3_716_129" style="mask-type:luminance" maskUnits="userSpaceOnUse" x="418" y="184" width="37" height="37">
<path d="M418.664 184.403H454.386V220.125H418.664V184.403Z" fill="white"/>
</mask>
<g mask="url(#mask3_716_129)">
<path d="M424.617 201.52V207.474C424.617 208.709 425.615 209.706 426.85 209.706C428.086 209.706 429.083 208.709 429.083 207.474V201.52C429.083 200.284 428.086 199.287 426.85 199.287C425.615 199.287 424.617 200.284 424.617 201.52ZM433.548 201.52V207.474C433.548 208.709 434.545 209.706 435.781 209.706C437.016 209.706 438.013 208.709 438.013 207.474V201.52C438.013 200.284 437.016 199.287 435.781 199.287C434.545 199.287 433.548 200.284 433.548 201.52ZM423.873 217.148H447.688C448.924 217.148 449.921 216.151 449.921 214.916C449.921 213.68 448.924 212.683 447.688 212.683H423.873C422.638 212.683 421.641 213.68 421.641 214.916C421.641 216.151 422.638 217.148 423.873 217.148ZM442.479 201.52V207.474C442.479 208.709 443.476 209.706 444.711 209.706C445.947 209.706 446.944 208.709 446.944 207.474V201.52C446.944 200.284 445.947 199.287 444.711 199.287C443.476 199.287 442.479 200.284 442.479 201.52ZM434.396 186.621L422.638 192.813C422.028 193.125 421.641 193.765 421.641 194.45C421.641 195.477 422.474 196.31 423.501 196.31H448.075C449.087 196.31 449.921 195.477 449.921 194.45C449.921 193.765 449.534 193.125 448.924 192.813L437.165 186.621C436.302 186.159 435.26 186.159 434.396 186.621Z" fill="#323C46"/>
</g>
</g>
</g>
<defs>
<clipPath id="clip0_716_129">
<path d="M0 0H512V212C512 220.837 504.837 228 496 228H16C7.16344 228 0 220.837 0 212V0Z" fill="white"/>
</clipPath>
<clipPath id="clip1_716_129">
<rect width="35.7223" height="35.7223" fill="white" transform="translate(433.373 70.9321)"/>
</clipPath>
<clipPath id="clip2_716_129">
<rect width="35.7223" height="35.7223" fill="white" transform="translate(173.861 164.441)"/>
</clipPath>
<clipPath id="clip3_716_129">
<rect width="35.7223" height="35.7223" fill="white" transform="translate(246.356 25.7539)"/>
</clipPath>
<clipPath id="clip4_716_129">
<rect width="35.7223" height="35.7223" fill="white" transform="translate(418.664 184.403)"/>
</clipPath>
</defs>
</svg>
