<svg width="9" height="14" viewBox="0 0 9 14" fill="none" xmlns="http://www.w3.org/2000/svg">
<path d="M0.333413 6.99976C0.332398 6.82428 0.366032 6.65033 0.432385 6.48788C0.498738 6.32543 0.596504 6.17768 0.720079 6.05309L6.05341 0.719759C6.17773 0.595441 6.32532 0.496827 6.48775 0.429546C6.65018 0.362266 6.82427 0.327637 7.00008 0.327637C7.17589 0.327637 7.34998 0.362266 7.51241 0.429546C7.67484 0.496827 7.82243 0.595441 7.94675 0.719759C8.07106 0.844077 8.16968 0.991664 8.23696 1.15409C8.30424 1.31652 8.33887 1.49061 8.33887 1.66643C8.33887 1.84224 8.30424 2.01633 8.23696 2.17876C8.16968 2.34119 8.07106 2.48877 7.94675 2.61309L3.53341 6.99976L7.77341 11.3998C7.9098 11.5224 8.01941 11.6719 8.09539 11.8388C8.17137 12.0058 8.21209 12.1866 8.21499 12.37C8.2179 12.5534 8.18293 12.7355 8.11228 12.9047C8.04162 13.074 7.9368 13.2269 7.80437 13.3538C7.67194 13.4807 7.51474 13.5789 7.34262 13.6423C7.17049 13.7057 6.98714 13.7329 6.80402 13.7222C6.62091 13.7115 6.44197 13.6631 6.2784 13.5801C6.11483 13.4971 5.97016 13.3812 5.85341 13.2398L0.706745 7.90643C0.471658 7.66259 0.33818 7.33843 0.333413 6.99976Z" fill="#0C3845"/>
</svg>
