<svg width="33" height="32" viewBox="0 0 33 32" fill="none" xmlns="http://www.w3.org/2000/svg">
<path d="M25.8332 5.3335L7.1665 5.3335C6.10564 5.3335 5.08822 5.75492 4.33808 6.50507C3.58793 7.25521 3.1665 8.27263 3.1665 9.3335L3.1665 22.6668C3.1665 23.7277 3.58793 24.7451 4.33808 25.4953C5.08822 26.2454 6.10564 26.6668 7.1665 26.6668L25.8332 26.6668C26.894 26.6668 27.9115 26.2454 28.6616 25.4953C29.4117 24.7451 29.8332 23.7277 29.8332 22.6668L29.8332 9.3335C29.8332 8.27263 29.4117 7.25521 28.6616 6.50507C27.9115 5.75492 26.894 5.3335 25.8332 5.3335ZM25.8332 8.00016L17.1665 13.9602C16.9638 14.0772 16.7339 14.1388 16.4998 14.1388C16.2658 14.1388 16.0359 14.0772 15.8332 13.9602L7.1665 8.00016L25.8332 8.00016Z" fill="#0C3845"/>
</svg>
