<svg width="17" height="18" viewBox="0 0 17 18" fill="none" xmlns="http://www.w3.org/2000/svg">
<path d="M10.3799 8.99996L16.1133 3.27996C16.3643 3.02889 16.5054 2.68836 16.5054 2.3333C16.5054 1.97823 16.3643 1.6377 16.1133 1.38663C15.8622 1.13556 15.5217 0.994507 15.1666 0.994507C14.8115 0.994507 14.471 1.13556 14.2199 1.38663L8.49992 7.11996L2.77992 1.38663C2.52885 1.13556 2.18832 0.994507 1.83325 0.994507C1.47818 0.994507 1.13766 1.13556 0.886585 1.38663C0.635514 1.6377 0.494463 1.97823 0.494463 2.3333C0.494463 2.68836 0.635514 3.02889 0.886585 3.27996L6.61992 8.99996L0.886585 14.72C0.761614 14.8439 0.662422 14.9914 0.59473 15.1539C0.527039 15.3163 0.492188 15.4906 0.492188 15.6666C0.492188 15.8426 0.527039 16.0169 0.59473 16.1794C0.662422 16.3419 0.761614 16.4893 0.886585 16.6133C1.01054 16.7383 1.158 16.8375 1.32048 16.9052C1.48296 16.9728 1.65724 17.0077 1.83325 17.0077C2.00927 17.0077 2.18354 16.9728 2.34602 16.9052C2.5085 16.8375 2.65597 16.7383 2.77992 16.6133L8.49992 10.88L14.2199 16.6133C14.3439 16.7383 14.4913 16.8375 14.6538 16.9052C14.8163 16.9728 14.9906 17.0077 15.1666 17.0077C15.3426 17.0077 15.5169 16.9728 15.6794 16.9052C15.8418 16.8375 15.9893 16.7383 16.1133 16.6133C16.2382 16.4893 16.3374 16.3419 16.4051 16.1794C16.4728 16.0169 16.5077 15.8426 16.5077 15.6666C16.5077 15.4906 16.4728 15.3163 16.4051 15.1539C16.3374 14.9914 16.2382 14.8439 16.1133 14.72L10.3799 8.99996Z" fill="white"/>
</svg>
