<svg width="20" height="14" viewBox="0 0 20 14" fill="none" xmlns="http://www.w3.org/2000/svg">
<path d="M15.8098 7.38985C17.5703 5.94383 18.7114 3.87968 18.9998 1.61985C19.0156 1.48853 19.0053 1.35539 18.9697 1.22803C18.934 1.10068 18.8735 0.981598 18.7918 0.877596C18.7101 0.773595 18.6087 0.686706 18.4934 0.621893C18.3781 0.557079 18.2512 0.515609 18.1199 0.49985C17.9885 0.484091 17.8554 0.494353 17.728 0.530049C17.6007 0.565744 17.4816 0.626175 17.3776 0.70789C17.2736 0.789606 17.1867 0.891006 17.1219 1.0063C17.0571 1.1216 17.0156 1.24853 16.9998 1.37985C16.7608 3.06613 15.921 4.60944 14.635 5.72603C13.3489 6.84262 11.703 7.45743 9.99985 7.45743C8.2967 7.45743 6.6508 6.84262 5.36474 5.72603C4.07868 4.60944 3.23892 3.06613 2.99985 1.37985C2.98409 1.24853 2.94262 1.1216 2.87781 1.0063C2.81299 0.891006 2.72611 0.789606 2.6221 0.70789C2.5181 0.626175 2.39902 0.565744 2.27167 0.530049C2.14431 0.494353 2.01117 0.484091 1.87985 0.49985C1.74853 0.515609 1.6216 0.557079 1.5063 0.621893C1.39101 0.686706 1.28961 0.773595 1.20789 0.877596C1.12618 0.981598 1.06574 1.10068 1.03005 1.22803C0.994353 1.35539 0.984091 1.48853 0.99985 1.61985C1.28569 3.87819 2.42317 5.94213 4.17985 7.38985L1.87985 9.70985C1.71602 9.90115 1.63042 10.1472 1.64014 10.3989C1.64986 10.6506 1.75419 10.8893 1.93229 11.0674C2.11038 11.2455 2.34912 11.3498 2.6008 11.3596C2.85247 11.3693 3.09855 11.2837 3.28985 11.1199L5.89985 8.51985C6.86965 9.00993 7.91971 9.32156 8.99985 9.43985V12.9999C8.99985 13.2651 9.10521 13.5194 9.29274 13.707C9.48028 13.8945 9.73463 13.9999 9.99985 13.9999C10.2651 13.9999 10.5194 13.8945 10.707 13.707C10.8945 13.5194 10.9999 13.2651 10.9999 12.9999V9.43985C12.08 9.32156 13.13 9.00993 14.0999 8.51985L16.7098 11.1199C16.9012 11.2837 17.1472 11.3693 17.3989 11.3596C17.6506 11.3498 17.8893 11.2455 18.0674 11.0674C18.2455 10.8893 18.3498 10.6506 18.3596 10.3989C18.3693 10.1472 18.2837 9.90115 18.1199 9.70985L15.8098 7.38985Z" fill="#0C3845"/>
</svg>
