<svg width="24" height="24" viewBox="0 0 24 24" fill="none" xmlns="http://www.w3.org/2000/svg">
<path d="M10.165 23C4.972 22.0802 1 17.5303 1 12.0615C1 5.97751 5.95002 1 12.0004 1C18.0508 1 23 5.97751 23 12.0615C23 17.5303 19.028 22.0785 13.8333 23L13.2223 22.5104H10.7777L10.165 23Z" fill="url(#paint0_linear_823_4668)"/>
<path d="M16.355 14.9297L16.8708 11.8266H13.7742V9.65419C13.7742 8.78522 14.0967 8.10221 15.5158 8.10221H17V5.24765C16.1608 5.12339 15.2584 5 14.4182 5C11.7733 5 9.90154 6.55198 9.90154 9.34484V11.8275H7V14.9306H9.90154V22.8138C11.1789 23.0621 12.495 23.0621 13.7724 22.8138V14.9323L16.355 14.9297Z" fill="white"/>
<defs>
<linearGradient id="paint0_linear_823_4668" x1="12.0133" y1="22.1506" x2="12.0133" y2="0.79276" gradientUnits="userSpaceOnUse">
<stop stop-color="#0062E0"/>
<stop offset="1" stop-color="#19AFFF"/>
</linearGradient>
</defs>
</svg>
