<svg width="64" height="64" viewBox="0 0 64 64" fill="none" xmlns="http://www.w3.org/2000/svg">
<rect width="64" height="64" rx="16" fill="#F6F5F4"/>
<path d="M31.9999 15.3335C28.7036 15.3335 25.4812 16.311 22.7404 18.1423C19.9996 19.9737 17.8634 22.5767 16.6019 25.6221C15.3405 28.6675 15.0104 32.0187 15.6535 35.2517C16.2966 38.4847 17.8839 41.4544 20.2148 43.7853C22.5457 46.1162 25.5154 47.7035 28.7484 48.3466C31.9814 48.9897 35.3325 48.6596 38.378 47.3982C41.4234 46.1367 44.0264 44.0005 45.8577 41.2597C47.6891 38.5188 48.6666 35.2965 48.6666 32.0002C48.6666 29.8115 48.2355 27.6442 47.3979 25.6221C46.5603 23.6 45.3327 21.7627 43.785 20.215C42.2374 18.6674 40.4001 17.4397 38.378 16.6022C36.3559 15.7646 34.1886 15.3335 31.9999 15.3335ZM39.1666 28.0168L31.5499 38.0168C31.3947 38.2185 31.1953 38.382 30.967 38.4946C30.7388 38.6073 30.4878 38.6662 30.2333 38.6668C29.9801 38.6682 29.73 38.6119 29.5018 38.5021C29.2737 38.3924 29.0735 38.2321 28.9166 38.0335L24.8499 32.8502C24.7153 32.6773 24.6161 32.4795 24.5579 32.2683C24.4997 32.057 24.4837 31.8364 24.5108 31.6189C24.5379 31.4015 24.6075 31.1915 24.7157 31.001C24.824 30.8104 24.9687 30.6431 25.1416 30.5085C25.4908 30.2366 25.9337 30.1147 26.3728 30.1694C26.5903 30.1964 26.8003 30.2661 26.9908 30.3743C27.1813 30.4826 27.3487 30.6273 27.4833 30.8002L30.1999 34.2668L36.4999 25.9335C36.6334 25.7584 36.8001 25.6113 36.9905 25.5006C37.1808 25.39 37.3911 25.3179 37.6093 25.2885C37.8276 25.2591 38.0494 25.2729 38.2623 25.3293C38.4752 25.3856 38.6748 25.4833 38.8499 25.6168C39.025 25.7503 39.1721 25.917 39.2828 26.1074C39.3935 26.2977 39.4656 26.508 39.495 26.7262C39.5244 26.9445 39.5105 27.1663 39.4542 27.3792C39.3978 27.5921 39.3001 27.7917 39.1666 27.9668V28.0168Z" fill="#0C3845"/>
</svg>
