<svg width="23" height="24" viewBox="0 0 23 24" fill="none" xmlns="http://www.w3.org/2000/svg">
<path d="M8.07384 1.45199C5.35584 2.38199 3.03984 4.41599 1.74984 6.98999C1.29984 7.87799 0.975842 8.81999 0.777842 9.79799C0.285842 12.222 0.627842 14.808 1.74384 17.016C2.46984 18.456 3.51384 19.74 4.77384 20.742C5.96784 21.69 7.35384 22.398 8.82984 22.788C10.6898 23.286 12.6698 23.274 14.5418 22.848C16.2338 22.458 17.8358 21.648 19.1138 20.472C20.4638 19.23 21.4298 17.598 21.9398 15.84C22.4978 13.926 22.5698 11.88 22.2218 9.91199C18.7238 9.91199 15.2198 9.91199 11.7218 9.91199C11.7218 11.364 11.7218 12.816 11.7218 14.268C13.7498 14.268 15.7778 14.268 17.8058 14.268C17.5718 15.66 16.7438 16.932 15.5738 17.718C14.8358 18.216 13.9898 18.534 13.1138 18.69C12.2378 18.84 11.3258 18.858 10.4498 18.684C9.55584 18.504 8.70984 18.132 7.96584 17.61C6.77784 16.776 5.87184 15.558 5.40984 14.184C4.93584 12.786 4.92984 11.232 5.40984 9.83999C5.74584 8.85599 6.29784 7.94999 7.02984 7.20599C7.92984 6.28199 9.09984 5.62199 10.3658 5.35199C11.4458 5.12399 12.5858 5.16599 13.6418 5.48399C14.5418 5.75399 15.3698 6.25199 16.0478 6.89999C16.7318 6.21599 17.4158 5.53199 18.0998 4.84799C18.4598 4.48199 18.8378 4.12799 19.1858 3.74999C18.1478 2.78999 16.9238 2.01599 15.5918 1.52399C13.1918 0.635988 10.4918 0.617988 8.07384 1.45199Z" fill="white"/>
<path d="M8.074 1.45195C10.486 0.61795 13.192 0.63595 15.592 1.51795C16.924 2.00995 18.142 2.77795 19.186 3.74395C18.838 4.12195 18.46 4.47595 18.1 4.84195C17.416 5.52595 16.732 6.20995 16.048 6.89395C15.37 6.24595 14.542 5.75395 13.642 5.47795C12.586 5.15995 11.446 5.11195 10.366 5.34595C9.106 5.61595 7.936 6.27595 7.03 7.19995C6.298 7.93795 5.746 8.84995 5.41 9.83395C4.192 8.88595 2.974 7.94395 1.75 6.99595C3.04 4.41595 5.356 2.38195 8.074 1.45195Z" fill="#EA4335"/>
<path d="M0.783873 9.79189C0.981873 8.81989 1.30587 7.87189 1.75587 6.98389C2.97387 7.93189 4.19187 8.87389 5.41587 9.82189C4.93587 11.2199 4.93587 12.7739 5.41587 14.1659C4.19787 15.1139 2.97987 16.0619 1.76187 17.0039C0.633873 14.8019 0.291873 12.2159 0.783873 9.79189Z" fill="#FBBC05"/>
<path d="M11.7218 9.90601C15.2198 9.90601 18.7238 9.90601 22.2218 9.90601C22.5698 11.868 22.4918 13.914 21.9398 15.834C21.4298 17.592 20.4638 19.224 19.1138 20.466C17.9318 19.548 16.7498 18.63 15.5678 17.712C16.7378 16.926 17.5658 15.654 17.7998 14.262C15.7718 14.262 13.7438 14.262 11.7158 14.262C11.7218 12.81 11.7218 11.358 11.7218 9.90601Z" fill="#4285F4"/>
<path d="M1.75 17.0099C2.968 16.0679 4.186 15.1199 5.404 14.1719C5.872 15.5459 6.772 16.7639 7.96 17.5979C8.704 18.1199 9.556 18.4919 10.444 18.6719C11.32 18.8519 12.226 18.8279 13.108 18.6779C13.984 18.5219 14.83 18.2039 15.568 17.7059C16.75 18.6239 17.932 19.5419 19.114 20.4599C17.836 21.6419 16.234 22.4459 14.542 22.8359C12.67 23.2619 10.69 23.2739 8.83 22.7759C7.354 22.3859 5.968 21.6839 4.774 20.7299C3.52 19.7339 2.476 18.4499 1.75 17.0099Z" fill="#34A853"/>
</svg>
