<svg width="19" height="24" viewBox="0 0 19 24" fill="none" xmlns="http://www.w3.org/2000/svg">
<path d="M9.4544 5.52719C10.5776 5.43599 11.3984 5.01119 12.008 4.64639C12.3416 4.40399 12.6776 4.15919 12.8888 3.88559C13.1312 3.52079 13.3136 3.18719 13.496 2.88239C13.6472 2.60879 13.7696 2.21279 13.9208 1.75919C14.012 1.39439 14.072 1.06079 14.072 0.57359V0.23999C12.9776 0.33119 12.128 0.75599 11.5184 1.12079C11.1848 1.36319 10.9112 1.60799 10.6376 1.88159C10.4552 2.15519 10.2128 2.48879 10.0304 2.88479C9.8792 3.21839 9.7568 3.55439 9.6056 4.07039C9.5144 4.43519 9.4544 4.76879 9.4544 5.19359V5.52719ZM0.216797 13.488C0.216797 13.8216 0.216797 14.1576 0.276797 14.5224C0.430397 16.224 0.883997 18.048 1.8272 19.8096C2.6168 21.2376 3.2864 22.272 3.9536 22.8792C4.652 23.4864 5.3216 23.76 5.9288 23.76C7.2344 23.76 8.756 22.5456 9.9704 22.5456C11.156 22.5456 12.3416 23.76 13.556 23.76C14.2256 23.76 14.8328 23.5176 15.38 23.0904C15.9872 22.6032 16.5032 22.056 16.9904 21.3576C17.1728 21.084 17.3552 20.7792 17.5688 20.4144C17.9024 19.8072 18.2672 18.8952 18.7832 17.832V17.6808C16.9904 17.0112 15.6848 15.1896 15.6848 13.1232C15.6848 12.18 15.9272 11.3304 16.3544 10.5696C16.8416 9.77999 17.4776 9.20159 18.1784 8.83679C17.0552 7.31759 15.2912 6.46559 13.9856 6.46559C12.4352 6.46559 10.3088 7.55999 9.6392 7.55999C8.9696 7.55999 7.5728 6.55679 5.72 6.55679C4.5344 6.55679 2.8928 7.04399 1.6784 8.38079C0.888797 9.26159 0.492797 10.5984 0.250397 12.2088C0.247997 12.6072 0.216797 13.0344 0.216797 13.488Z" fill="#0C3845"/>
</svg>
