<svg width="32" height="32" viewBox="0 0 32 32" fill="none" xmlns="http://www.w3.org/2000/svg">
<rect width="32" height="32" rx="16" fill="#F6F5F4"/>
<path d="M17.6439 16L22.6571 10.9984C22.8767 10.7789 23 10.4811 23 10.1706C23 9.86017 22.8767 9.56241 22.6571 9.34287C22.4376 9.12333 22.1398 9 21.8294 9C21.5189 9 21.2211 9.12333 21.0016 9.34287L16 14.3561L10.9984 9.34287C10.7789 9.12333 10.4811 9 10.1707 9C9.8602 9 9.56245 9.12333 9.34291 9.34287C9.12337 9.56241 9.00004 9.86017 9.00004 10.1706C9.00004 10.4811 9.12337 10.7789 9.34291 10.9984L14.3561 16L9.34291 21.0016C9.23363 21.1099 9.1469 21.2389 9.08771 21.381C9.02852 21.523 8.99805 21.6754 8.99805 21.8293C8.99805 21.9832 9.02852 22.1356 9.08771 22.2777C9.1469 22.4198 9.23363 22.5487 9.34291 22.6571C9.45129 22.7664 9.58024 22.8531 9.72231 22.9123C9.86438 22.9715 10.0168 23.002 10.1707 23.002C10.3246 23.002 10.477 22.9715 10.619 22.9123C10.7611 22.8531 10.8901 22.7664 10.9984 22.6571L16 17.6439L21.0016 22.6571C21.11 22.7664 21.2389 22.8531 21.381 22.9123C21.5231 22.9715 21.6755 23.002 21.8294 23.002C21.9833 23.002 22.1357 22.9715 22.2777 22.9123C22.4198 22.8531 22.5487 22.7664 22.6571 22.6571C22.7664 22.5487 22.8531 22.4198 22.9123 22.2777C22.9715 22.1356 23.002 21.9832 23.002 21.8293C23.002 21.6754 22.9715 21.523 22.9123 21.381C22.8531 21.2389 22.7664 21.1099 22.6571 21.0016L17.6439 16Z" fill="#0C3845"/>
</svg>
