<svg width="512" height="228" viewBox="0 0 512 228" fill="none" xmlns="http://www.w3.org/2000/svg">
<g clip-path="url(#clip0_716_191)">
<rect x="362" y="46" width="128" height="196" rx="18" fill="white" stroke="#F6F5F4" stroke-width="4"/>
<rect x="375" y="59" width="72" height="72" rx="36" fill="white" stroke="#F6F5F4" stroke-width="4"/>
<path d="M411.013 93.262C412.398 93.262 413.753 92.8512 414.904 92.0816C416.056 91.3119 416.954 90.218 417.484 88.9381C418.014 87.6582 418.153 86.2499 417.883 84.8912C417.613 83.5325 416.945 82.2844 415.966 81.3048C414.986 80.3252 413.738 79.6581 412.38 79.3879C411.021 79.1176 409.612 79.2563 408.333 79.7865C407.053 80.3166 405.959 81.2144 405.189 82.3662C404.419 83.5181 404.009 84.8723 404.009 86.2577C404.009 88.1153 404.747 89.8969 406.06 91.2105C407.374 92.5241 409.155 93.262 411.013 93.262ZM421.52 110.773C421.984 110.773 422.429 110.588 422.758 110.26C423.086 109.932 423.271 109.486 423.271 109.022C423.271 105.771 421.979 102.653 419.68 100.354C417.382 98.0556 414.264 96.7642 411.013 96.7642C407.762 96.7642 404.644 98.0556 402.346 100.354C400.047 102.653 398.755 105.771 398.755 109.022C398.755 109.486 398.94 109.932 399.268 110.26C399.597 110.588 400.042 110.773 400.506 110.773H421.52Z" fill="#0C3845"/>
<rect opacity="0.7" x="377" y="142" width="98" height="13" rx="6.5" fill="#C5C5C5"/>
<rect opacity="0.7" x="377" y="168" width="98" height="13" rx="6.5" fill="#C5C5C5"/>
<rect opacity="0.7" x="377" y="194" width="58" height="13" rx="6.5" fill="#C5C5C5"/>
<rect opacity="0.7" x="377" y="220" width="58" height="13" rx="6.5" fill="#C5C5C5"/>
<rect x="281" y="46" width="128" height="196" rx="18" fill="white" stroke="#F6F5F4" stroke-width="4"/>
<rect x="294" y="59" width="72" height="72" rx="36" fill="white" stroke="#F6F5F4" stroke-width="4"/>
<rect opacity="0.7" x="296" y="142" width="98" height="13" rx="6.5" fill="#C5C5C5"/>
<rect opacity="0.7" x="296" y="168" width="98" height="13" rx="6.5" fill="#C5C5C5"/>
<rect opacity="0.7" x="296" y="194" width="58" height="13" rx="6.5" fill="#C5C5C5"/>
<rect opacity="0.7" x="296" y="220" width="58" height="13" rx="6.5" fill="#C5C5C5"/>
<path d="M330.013 93.262C331.398 93.262 332.753 92.8512 333.904 92.0816C335.056 91.3119 335.954 90.218 336.484 88.9381C337.014 87.6582 337.153 86.2499 336.883 84.8912C336.613 83.5325 335.945 82.2844 334.966 81.3048C333.986 80.3252 332.738 79.6581 331.38 79.3879C330.021 79.1176 328.612 79.2563 327.333 79.7865C326.053 80.3166 324.959 81.2144 324.189 82.3662C323.419 83.5181 323.009 84.8723 323.009 86.2577C323.009 88.1153 323.747 89.8969 325.06 91.2105C326.374 92.5241 328.155 93.262 330.013 93.262ZM340.52 110.773C340.984 110.773 341.429 110.588 341.758 110.26C342.086 109.932 342.271 109.486 342.271 109.022C342.271 105.771 340.979 102.653 338.68 100.354C336.382 98.0556 333.264 96.7642 330.013 96.7642C326.762 96.7642 323.644 98.0556 321.346 100.354C319.047 102.653 317.755 105.771 317.755 109.022C317.755 109.486 317.94 109.932 318.268 110.26C318.597 110.588 319.042 110.773 319.506 110.773H340.52Z" fill="#0C3845"/>
<path d="M320.758 145.843C320.519 151.879 318.823 157.767 315.814 163.005C312.804 168.242 308.572 172.673 303.478 175.919C298.383 179.165 292.579 181.13 286.561 181.645C280.542 182.16 274.488 181.21 268.917 178.876C266.304 177.781 263.825 176.389 261.53 174.727C257.145 171.561 253.494 167.484 250.829 162.777V162.773C247.987 157.738 246.352 152.113 246.051 146.339C245.75 140.566 246.792 134.801 249.095 129.498C251.398 124.195 254.899 119.498 259.323 115.777C263.748 112.055 268.975 109.41 274.594 108.05C280.213 106.69 286.071 106.651 291.708 107.936C297.345 109.222 302.606 111.797 307.08 115.459C311.553 119.122 315.117 123.771 317.49 129.043C319.863 134.315 320.982 140.065 320.758 145.843L320.758 145.843Z" fill="white"/>
<path d="M322.756 145.922L322.791 145.047L322.781 145.037C322.875 139.249 321.693 133.507 319.314 128.222C316.814 122.668 313.06 117.77 308.347 113.912C303.634 110.053 298.091 107.341 292.153 105.986C286.214 104.632 280.043 104.673 274.123 106.106C268.204 107.539 262.697 110.326 258.036 114.246C253.375 118.167 249.686 123.115 247.26 128.701C244.834 134.288 243.736 140.361 244.053 146.443C244.361 152.349 245.994 158.107 248.829 163.291V163.304L249.089 163.762C251.895 168.72 255.74 173.013 260.359 176.348C262.777 178.099 265.389 179.567 268.144 180.721L268.144 180.721C274.013 183.179 280.391 184.18 286.731 183.638C293.071 183.095 299.186 181.026 304.552 177.606C309.919 174.186 314.378 169.518 317.548 164.001C320.718 158.483 322.505 152.28 322.756 145.922Z" fill="#323C46" stroke="#F6F5F4" stroke-width="4"/>
<path d="M283.86 129.977C280.916 129.977 278.039 130.85 275.591 132.485C273.144 134.12 271.236 136.445 270.109 139.164C268.983 141.884 268.688 144.877 269.263 147.764C269.837 150.651 271.254 153.303 273.336 155.384C275.417 157.466 278.069 158.883 280.956 159.457C283.843 160.032 286.836 159.737 289.556 158.61C292.275 157.484 294.6 155.576 296.235 153.129C297.87 150.681 298.743 147.804 298.743 144.86C298.743 142.905 298.358 140.97 297.61 139.164C296.862 137.359 295.766 135.718 294.384 134.336C293.002 132.954 291.361 131.858 289.556 131.11C287.75 130.362 285.814 129.977 283.86 129.977ZM283.86 156.767C281.505 156.767 279.203 156.068 277.245 154.76C275.287 153.452 273.761 151.592 272.86 149.416C271.958 147.241 271.723 144.847 272.182 142.537C272.641 140.227 273.775 138.106 275.441 136.441C277.106 134.776 279.227 133.642 281.537 133.182C283.847 132.723 286.241 132.958 288.416 133.86C290.592 134.761 292.452 136.287 293.76 138.245C295.068 140.203 295.767 142.505 295.767 144.86C295.767 148.018 294.512 151.046 292.279 153.279C290.046 155.512 287.018 156.767 283.86 156.767Z" fill="white"/>
<path d="M289.813 143.372H285.348V138.907C285.348 138.512 285.191 138.133 284.912 137.854C284.633 137.575 284.255 137.418 283.86 137.418C283.465 137.418 283.087 137.575 282.808 137.854C282.528 138.133 282.372 138.512 282.372 138.907V144.86C282.372 145.255 282.528 145.633 282.808 145.912C283.087 146.192 283.465 146.348 283.86 146.348H289.813C290.208 146.348 290.587 146.192 290.866 145.912C291.145 145.633 291.302 145.255 291.302 144.86C291.302 144.465 291.145 144.087 290.866 143.808C290.587 143.528 290.208 143.372 289.813 143.372Z" fill="white"/>
</g>
<defs>
<clipPath id="clip0_716_191">
<path d="M0 0H512V212C512 220.837 504.837 228 496 228H16C7.16344 228 0 220.837 0 212V0Z" fill="white"/>
</clipPath>
</defs>
</svg>
