<svg width="27" height="28" viewBox="0 0 27 28" fill="none" xmlns="http://www.w3.org/2000/svg">
<path d="M13.5001 0.666626C10.863 0.666626 8.28514 1.44861 6.09248 2.9137C3.89983 4.37878 2.19086 6.46117 1.18169 8.89751C0.172525 11.3339 -0.0915193 14.0148 0.42295 16.6012C0.93742 19.1876 2.2073 21.5634 4.072 23.4281C5.9367 25.2928 8.31247 26.5626 10.8989 27.0771C13.4853 27.5916 16.1662 27.3275 18.6025 26.3184C21.0389 25.3092 23.1213 23.6002 24.5863 21.4076C26.0514 19.2149 26.8334 16.637 26.8334 14C26.8334 12.249 26.4885 10.5152 25.8185 8.89751C25.1484 7.27984 24.1663 5.80998 22.9282 4.57187C21.6901 3.33375 20.2202 2.35163 18.6025 1.68157C16.9849 1.0115 15.251 0.666626 13.5001 0.666626ZM19.2334 10.8133L13.1401 18.8133C13.0159 18.9746 12.8564 19.1054 12.6738 19.1955C12.4912 19.2857 12.2904 19.3328 12.0868 19.3333C11.8842 19.3344 11.6841 19.2893 11.5016 19.2015C11.3191 19.1137 11.159 18.9855 11.0334 18.8266L7.78009 14.68C7.6724 14.5416 7.59302 14.3835 7.54647 14.2144C7.49992 14.0454 7.48711 13.8689 7.50877 13.695C7.53044 13.521 7.58616 13.353 7.67275 13.2006C7.75933 13.0482 7.8751 12.9143 8.01342 12.8066C8.29278 12.5891 8.64709 12.4916 8.99841 12.5353C9.17237 12.557 9.34035 12.6127 9.49277 12.6993C9.6452 12.7859 9.77907 12.9016 9.88675 13.04L12.0601 15.8133L17.1001 9.14663C17.2069 9.00655 17.3402 8.88888 17.4925 8.80034C17.6448 8.7118 17.813 8.65412 17.9876 8.6306C18.1622 8.60707 18.3397 8.61817 18.51 8.66324C18.6803 8.70831 18.84 8.78648 18.9801 8.89329C19.1202 9.0001 19.2378 9.13345 19.3264 9.28574C19.4149 9.43802 19.4726 9.60625 19.4961 9.78083C19.5196 9.9554 19.5085 10.1329 19.4635 10.3032C19.4184 10.4735 19.3402 10.6332 19.2334 10.7733V10.8133Z" fill="white"/>
</svg>
