<svg width="64" height="64" viewBox="0 0 64 64" fill="none" xmlns="http://www.w3.org/2000/svg">
<rect width="64" height="64" rx="16" fill="#F6F5F4"/>
<path d="M43.6667 17H20.3333C18.5 17 17 18.5 17 20.3333V43.6667C17 45.5 18.5 47 20.3333 47H43.6667C45.5 47 47 45.5 47 43.6667V20.3333C47 18.5 45.5 17 43.6667 17ZM23.6667 23.6667H27V27H23.6667V23.6667ZM23.6667 30.3333H27V33.6667H23.6667V30.3333ZM23.6667 37H27V40.3333H23.6667V37ZM40.3333 40.3333H30.3333V37H40.3333V40.3333ZM40.3333 33.6667H30.3333V30.3333H40.3333V33.6667ZM40.3333 27H30.3333V23.6667H40.3333V27Z" fill="#0C3845"/>
</svg>
