<svg width="65" height="64" viewBox="0 0 65 64" fill="none" xmlns="http://www.w3.org/2000/svg">
<circle cx="32.5" cy="32" r="30" fill="white" stroke="#F6F5F4" stroke-width="4"/>
<path d="M28.8037 42.488C29.8917 43.648 30.9477 44.508 31.8597 44.94C31.9357 44.976 32.0037 45.02 32.0637 45.076C32.0877 45.096 32.1117 45.116 32.1397 45.136C32.2437 45.196 32.3917 45.216 32.5637 45.204C32.5877 45.2 32.6117 45.2 32.6357 45.2C32.6597 45.2 32.6837 45.2 32.7117 45.204C32.7477 45.208 32.7837 45.208 32.8157 45.208C32.9477 45.208 33.0517 45.184 33.1357 45.136C33.1637 45.12 33.1877 45.1 33.2117 45.08C33.2757 45.024 33.3437 44.976 33.4197 44.94C34.5797 44.392 35.9637 43.16 37.3557 41.496C36.0357 42.324 34.2397 42.828 31.9277 42.828C30.8357 42.828 29.7597 42.692 28.8037 42.488Z" fill="#323C46"/>
<path d="M35.4121 36.868C35.4121 35.604 34.4481 34.884 32.0121 34.008C28.6401 32.832 26.4441 30.968 26.4441 28.02C26.4441 25.852 27.5761 24.004 29.5961 22.928C25.7401 23.26 23.0241 24.196 21.9001 25.128C21.8161 25.196 21.7681 25.24 21.7241 25.288C21.6081 25.404 21.5201 25.512 21.4601 25.612C21.2081 25.996 21.0841 26.404 21.0801 26.828C21.1761 27.508 22.9041 33.712 24.7721 36.94C25.3601 37.956 25.9841 38.92 26.6201 39.808L27.1121 37.804C28.3481 38.44 30.2401 39.068 32.2001 39.068C34.3001 39.064 35.4121 38.192 35.4121 36.868Z" fill="#323C46"/>
<path d="M45.6999 26.852C45.6999 26.896 45.6959 26.936 45.6959 26.98C45.7919 29.592 44.3919 33.764 42.0439 37.824C39.6279 42.008 36.6639 45.312 34.2799 46.496C34.1919 46.564 34.1079 46.624 34.0199 46.672C33.6679 46.876 33.2599 46.98 32.8119 46.98C32.7519 46.98 32.6959 46.976 32.6359 46.976C32.1159 47.004 31.6479 46.904 31.2479 46.672C31.1599 46.62 31.0759 46.564 30.9919 46.496C28.6079 45.312 25.6439 42.004 23.2279 37.824C21.2079 34.332 19.2959 27.6 19.2959 26.856C19.2959 26.076 19.5239 25.32 19.9479 24.668C20.0679 24.468 20.2519 24.24 20.4719 24.024C20.5519 23.948 20.6359 23.868 20.7279 23.792C20.7359 23.784 20.7759 23.752 20.7839 23.744C22.7759 22.1 27.4359 21.024 32.6319 21.024C39.1239 21.024 45.6959 22.712 45.6959 25.94L45.6999 26.852Z" fill="#323C46"/>
<path d="M39.1561 23.436L38.2721 26.636C37.4601 26.244 36.0161 25.672 34.0281 25.672C32.0441 25.672 31.0801 26.576 31.0801 27.632C31.0801 28.924 32.2241 29.496 34.8401 30.492C38.4201 31.816 40.1081 33.684 40.1081 36.54C40.1081 36.98 40.0601 37.412 39.9721 37.828C40.1521 37.536 40.3321 37.24 40.5081 36.936C42.6641 33.208 44.0041 29.308 43.9201 27.004C43.9201 26.984 43.9201 26.964 43.9201 26.944L43.9241 26.868V25.94C43.9281 25.128 42.1761 24.092 39.1561 23.436Z" fill="#323C46"/>
</svg>
