<svg width="119" height="118" viewBox="0 0 119 118" fill="none" xmlns="http://www.w3.org/2000/svg">
<circle cx="59.5" cy="59" r="57" fill="#323C46" stroke="#F6F5F4" stroke-width="4"/>
<g clip-path="url(#clip0_728_1084)">
<path d="M64.6656 47.2235L67.2491 43.5077C67.9961 42.4328 68.7085 41.4885 69.3824 40.6807C70.0563 39.8727 70.7302 39.0402 71.4044 38.1767C72.9008 36.3474 74.1363 35.0548 75.1102 34.3C76.0819 33.5476 77.0191 33.1693 77.9177 33.1693C79.1894 33.1693 80.3321 33.8437 81.3426 35.1885C82.3533 36.5361 82.8585 38.0715 82.8585 39.7925C82.8585 41.0848 82.6149 42.4049 82.1286 43.7504C81.6409 45.0984 80.7619 46.956 79.4895 49.3231C73.65 60.3079 70.7302 67.4156 70.7302 70.6462C70.7302 72.0472 71.2165 72.7466 72.1899 72.7466C72.9376 72.7466 73.7624 72.2892 74.661 71.3728C75.5589 70.4596 76.719 68.8691 78.1421 66.6079C78.8894 65.424 79.8074 63.8081 80.8932 61.7618C81.978 59.7168 82.9323 57.8321 83.7571 56.1079C84.5804 54.3862 85.2732 53.1999 85.8347 52.5544C86.3962 51.908 87.0508 51.5851 87.8 51.5851C88.5477 51.5851 89.1846 51.9633 89.7088 52.715C90.2321 53.4698 90.4951 54.3862 90.4951 55.4618C90.4951 57.5089 89.8391 60.2275 88.5298 63.6194C87.2193 67.0116 85.5151 70.4846 83.42 74.0385C80.7987 78.5614 78.1228 82.0626 75.3909 84.5381C72.657 87.0149 70.1687 88.2542 67.923 88.2542C65.8257 88.2542 64.1046 87.2567 62.7568 85.2657C61.409 83.274 60.7356 80.7171 60.7356 77.5927C60.7356 75.9769 60.8285 74.4425 61.0162 72.9887C61.2024 71.5344 61.4828 70.028 61.8582 68.4655C62.232 66.9053 62.7568 65.2352 63.4307 63.4577C64.1046 61.6806 64.9642 59.7168 66.0134 57.5618C66.0873 57.3472 66.2752 56.9157 66.5752 56.2696C64.6271 58.4253 62.7008 61.1428 60.7915 64.4274C58.8826 67.7131 56.9542 71.9388 55.008 77.1078C53.5847 80.5555 52.4989 82.8425 51.7511 83.9731C51.0019 85.1041 50.067 85.6691 48.9439 85.6691C47.7453 85.6691 46.7539 85.0511 45.9677 83.8118C45.1814 82.5746 44.7886 81.04 44.7886 79.2075C44.7886 78.0242 44.8814 76.8654 45.069 75.7344C45.2553 74.6041 45.6487 73.0695 46.2488 71.1311C46.6219 69.6239 47.1082 67.9809 47.7085 66.2035C48.3068 64.4274 48.8315 63.0537 49.2807 62.085L51.4143 56.7541C51.5635 56.5395 51.7882 56.0017 52.0882 55.1386C50.5895 56.8627 49.1299 58.8286 47.7085 61.0345C46.2823 63.2478 44.915 65.5381 43.6096 67.9005C42.2986 70.2701 41.139 72.6654 40.1282 75.0887C39.1173 77.5115 38.2751 79.8536 37.6014 82.1156C36.7028 85.1313 35.8991 87.1483 35.1867 88.1731C34.4765 89.1954 33.5583 89.7074 32.4352 89.7074C31.3126 89.7074 30.3772 89.0613 29.6277 87.7694C28.8807 86.4771 28.5051 84.8084 28.5051 82.7617C28.5051 78.6704 29.8909 71.6156 32.6599 61.6002C34.2324 55.8934 35.9362 50.6154 37.7695 45.7696C39.6035 40.9235 41.4196 36.7789 43.2161 33.3306C44.2639 31.3926 45.1625 30.0192 45.9117 29.2121C46.659 28.404 47.4837 28 48.3824 28C49.3546 28 50.1968 28.4849 50.9092 29.4539C51.6199 30.4232 51.9758 31.6096 51.9758 33.0077C51.9758 34.0854 51.8078 35.2164 51.4707 36.4003C51.1339 37.5867 50.328 39.6309 49.056 42.5383C48.714 43.3686 48.3771 44.2032 48.0453 45.042C47.5961 46.173 47.0346 47.6021 46.3611 49.3231L45.1255 52.8766C47.3714 48.9999 49.3367 45.7163 51.0213 43.0232C52.7057 40.3324 54.1833 38.1767 55.4572 36.5619C56.7297 34.9464 57.8719 33.7622 58.8826 33.0077C59.8929 32.2561 60.8089 31.8774 61.6337 31.8774C62.6815 31.8774 63.5801 32.3895 64.3293 33.4118C65.0765 34.4365 65.4519 35.7012 65.4519 37.2073C65.4519 38.1767 65.301 39.2547 65.0027 40.4387C64.7027 41.625 64.0656 43.4547 63.0938 45.9309L60.7356 52.0696L59.8372 54.4925L61.1843 52.3928C62.5321 50.3479 63.6924 48.6237 64.6656 47.2235Z" fill="white"/>
</g>
<defs>
<clipPath id="clip0_728_1084">
<rect width="62" height="62" fill="white" transform="translate(28.5 28)"/>
</clipPath>
</defs>
</svg>
