<svg width="65" height="64" viewBox="0 0 65 64" fill="none" xmlns="http://www.w3.org/2000/svg">
<circle cx="32.5" cy="32" r="30" fill="#323C46" stroke="#F6F5F4" stroke-width="4"/>
<path d="M28.804 42.488C29.892 43.648 30.948 44.508 31.86 44.94C31.936 44.976 32.004 45.02 32.064 45.076C32.088 45.096 32.112 45.116 32.14 45.136C32.244 45.196 32.392 45.216 32.564 45.204C32.588 45.2 32.612 45.2 32.636 45.2C32.66 45.2 32.684 45.2 32.712 45.204C32.748 45.208 32.784 45.208 32.816 45.208C32.948 45.208 33.052 45.184 33.136 45.136C33.164 45.12 33.188 45.1 33.212 45.08C33.276 45.024 33.344 44.976 33.42 44.94C34.58 44.392 35.964 43.16 37.356 41.496C36.036 42.324 34.24 42.828 31.928 42.828C30.836 42.828 29.76 42.692 28.804 42.488Z" fill="white"/>
<path d="M35.4118 36.868C35.4118 35.604 34.4478 34.884 32.0118 34.008C28.6398 32.832 26.4438 30.968 26.4438 28.02C26.4438 25.852 27.5758 24.004 29.5958 22.928C25.7398 23.26 23.0238 24.196 21.8998 25.128C21.8158 25.196 21.7678 25.24 21.7238 25.288C21.6078 25.404 21.5198 25.512 21.4598 25.612C21.2078 25.996 21.0838 26.404 21.0798 26.828C21.1758 27.508 22.9038 33.712 24.7718 36.94C25.3598 37.956 25.9838 38.92 26.6198 39.808L27.1118 37.804C28.3478 38.44 30.2398 39.068 32.1998 39.068C34.2998 39.064 35.4118 38.192 35.4118 36.868Z" fill="white"/>
<path d="M45.6999 26.852C45.6999 26.896 45.6959 26.936 45.6959 26.98C45.7919 29.592 44.3919 33.764 42.0439 37.824C39.6279 42.008 36.6639 45.312 34.2799 46.496C34.1919 46.564 34.1079 46.624 34.0199 46.672C33.6679 46.876 33.2599 46.98 32.8119 46.98C32.7519 46.98 32.6959 46.976 32.6359 46.976C32.1159 47.004 31.6479 46.904 31.2479 46.672C31.1599 46.62 31.0759 46.564 30.9919 46.496C28.6079 45.312 25.6439 42.004 23.2279 37.824C21.2079 34.332 19.2959 27.6 19.2959 26.856C19.2959 26.076 19.5239 25.32 19.9479 24.668C20.0679 24.468 20.2519 24.24 20.4719 24.024C20.5519 23.948 20.6359 23.868 20.7279 23.792C20.7359 23.784 20.7759 23.752 20.7839 23.744C22.7759 22.1 27.4359 21.024 32.6319 21.024C39.1239 21.024 45.6959 22.712 45.6959 25.94L45.6999 26.852Z" fill="white"/>
<path d="M39.1558 23.436L38.2718 26.636C37.4598 26.244 36.0158 25.672 34.0278 25.672C32.0438 25.672 31.0798 26.576 31.0798 27.632C31.0798 28.924 32.2238 29.496 34.8398 30.492C38.4198 31.816 40.1078 33.684 40.1078 36.54C40.1078 36.98 40.0598 37.412 39.9718 37.828C40.1518 37.536 40.3318 37.24 40.5078 36.936C42.6638 33.208 44.0038 29.308 43.9198 27.004C43.9198 26.984 43.9198 26.964 43.9198 26.944L43.9238 26.868V25.94C43.9278 25.128 42.1758 24.092 39.1558 23.436Z" fill="white"/>
</svg>
