<svg width="129" height="122" viewBox="0 0 129 122" fill="none" xmlns="http://www.w3.org/2000/svg">
<path d="M99.9451 121.875C98.9256 121.879 97.9199 121.639 97.0126 121.174L64.5001 104.153L31.9876 121.174C30.9318 121.729 29.7415 121.977 28.5519 121.889C27.3624 121.801 26.2212 121.382 25.2583 120.678C24.2954 119.974 23.5492 119.014 23.1047 117.907C22.6602 116.8 22.5352 115.591 22.7438 114.416L29.1188 78.5251L2.85382 53.0251C2.03437 52.2073 1.45305 51.1819 1.17228 50.0587C0.891496 48.9356 0.921848 47.7572 1.26007 46.6501C1.62957 45.5171 2.30925 44.5103 3.22198 43.7441C4.13472 42.9778 5.24396 42.4828 6.42382 42.3151L42.7613 37.0238L58.7626 4.32008C59.2846 3.24225 60.0997 2.33326 61.1144 1.69724C62.1291 1.06121 63.3025 0.723877 64.5001 0.723877C65.6977 0.723877 66.871 1.06121 67.8858 1.69724C68.9005 2.33326 69.7156 3.24225 70.2376 4.32008L86.4301 36.9601L122.768 42.2513C123.947 42.419 125.057 42.9141 125.969 43.6803C126.882 44.4466 127.562 45.4533 127.931 46.5863C128.27 47.6935 128.3 48.8719 128.019 49.995C127.738 51.1181 127.157 52.1436 126.338 52.9613L100.073 78.4613L106.448 114.353C106.675 115.548 106.556 116.783 106.104 117.913C105.652 119.042 104.887 120.019 103.898 120.728C102.743 121.537 101.353 121.94 99.9451 121.875Z" fill="#0C3845"/>
</svg>
